<?xml version="1.0" encoding="UTF-8"?>
<svg id="_图层_2" data-name="图层 2" xmlns="http://www.w3.org/2000/svg" viewBox="0 0 29.62 29.62">
  <defs>
    <style>
      .cls-1 {
        fill: #fff;
      }

      .cls-2 {
        fill: #f4ba19;
      }
    </style>
  </defs>
  <g id="_图层_2-2" data-name="图层 2">
    <g>
      <circle class="cls-2" cx="14.81" cy="14.81" r="14.81"/>
      <g>
        <circle class="cls-1" cx="9.4" cy="13.9" r="3.32"/>
        <path class="cls-1" d="M5.65,22.52c1.54-.07,3.09-.04,4.62-.05,1.36,0,2.8-.15,4.2-.07,.02-.16,.04-.32,.04-.48h0c0-2.41-1.97-4.39-4.39-4.39h-1.27c-2.41,0-4.39,1.97-4.39,4.39h0c0,.17,.02,.33,.04,.48,.39,.03,.77,.08,1.15,.12Z"/>
        <rect class="cls-1" x="4.42" y="21.42" width="10.09" height="1.44" rx=".72" ry=".72"/>
        <path class="cls-1" d="M23.33,6.76H11.39c-1.03,0-1.87,.84-1.87,1.87v.89c.81,.07,1.5,.32,2.07,.68v-1.7h11.52v9.57H13.89c.03,.06,.05,.14,.08,.2,.21,.26,.42,.53,.6,.8,.03,.05,.07,.11,.1,.17,.14,.27,.27,.59,.39,.9h8.27c1.03,0,1.87-.84,1.87-1.87V8.63c0-1.03-.84-1.87-1.87-1.87Z"/>
        <rect class="cls-1" x="16.77" y="15.67" width="4.12" height="3.73" rx="1.05" ry="1.05"/>
      </g>
    </g>
  </g>
</svg>