<?xml version="1.0" encoding="UTF-8"?>
<svg id="_图层_2" data-name="图层 2" xmlns="http://www.w3.org/2000/svg" viewBox="0 0 29.62 29.62">
  <defs>
    <style>
      .cls-1 {
        fill: #f7f7f7;
      }

      .cls-2 {
        fill: #a029ff;
      }
    </style>
  </defs>
  <g id="_图层_2-2" data-name="图层 2">
    <g>
      <circle class="cls-2" cx="14.81" cy="14.81" r="14.81"/>
      <g>
        <path class="cls-1" d="M10.77,6.38l-2.37,2.74c-.26,.3-.05,.76,.35,.76h4.75c.39,0,.61-.46,.35-.76l-2.37-2.74c-.18-.21-.51-.21-.7,0Z"/>
        <path class="cls-1" d="M17.79,9.94l-2.37-2.74c-.26-.3-.05-.76,.35-.76h4.75c.39,0,.61,.46,.35,.76l-2.37,2.74c-.18,.21-.51,.21-.7,0Z"/>
        <path class="cls-1" d="M21.24,10.79H8.38c-1.06,0-1.91,.86-1.91,1.91v8.78c0,1.06,.86,1.91,1.91,1.91h12.86c1.06,0,1.91-.86,1.91-1.91V12.7c0-1.06-.86-1.91-1.91-1.91Zm-3.4,2.79c.86,0,1.56,.7,1.56,1.56s-.7,1.56-1.56,1.56-1.56-.7-1.56-1.56,.7-1.56,1.56-1.56Zm-6.06,0c.86,0,1.56,.7,1.56,1.56s-.7,1.56-1.56,1.56-1.56-.7-1.56-1.56,.7-1.56,1.56-1.56Zm2.5,5.94v.69c0,.38-.31,.7-.7,.7h-3.6c-.38,0-.7-.31-.7-.7v-.69c0-.05,.02-.1,.03-.14h-.02s0-.05,0-.08c0-.92,.71-1.67,1.57-1.67h1.85c.86,0,1.57,.75,1.57,1.67,0,.03,0,.05,0,.08h-.02s.03,.09,.03,.14Zm6.06,0v.69c0,.38-.31,.7-.7,.7h-3.6c-.38,0-.7-.31-.7-.7v-.69c0-.05,.02-.1,.03-.14h-.02s0-.05,0-.08c0-.92,.71-1.67,1.57-1.67h1.85c.86,0,1.57,.75,1.57,1.67,0,.03,0,.05,0,.08h-.02s.03,.09,.03,.14Z"/>
      </g>
    </g>
  </g>
</svg>