<?xml version="1.0" encoding="UTF-8"?>
<svg id="_图层_2" data-name="图层 2" xmlns="http://www.w3.org/2000/svg" viewBox="0 0 29.62 29.62">
  <defs>
    <style>
      .cls-1 {
        fill: #33bf9e;
      }

      .cls-2 {
        fill: #f7f7f7;
      }
    </style>
  </defs>
  <g id="_图层_2-2" data-name="图层 2">
    <g>
      <circle class="cls-1" cx="14.81" cy="14.81" r="14.81"/>
      <g>
        <rect class="cls-2" x="10.47" y="13.92" width="1.7" height="9.19" rx=".85" ry=".85"/>
        <rect class="cls-2" x="20.3" y="13.92" width="1.7" height="9.19" rx=".85" ry=".85"/>
        <path class="cls-2" d="M13.98,6.77h-5.32l-1.04,5c.02,.33,.12,1.24,.81,2.06,.17,.21,.88,1.02,2.04,1.19,.35,.05,.65,.03,.85,0,.2,.03,.5,.05,.85,0,1.17-.17,1.87-.98,2.04-1.19,.69-.83,.79-1.73,.81-2.06l-1.04-5Zm-3.26,4.87c0,.29-.23,.52-.52,.52h-.09c-.29,0-.52-.23-.52-.52V6.77c.37,0,.75,0,1.13,.01v4.85Zm2.32,0c0,.29-.23,.52-.52,.52h-.09c-.29,0-.52-.23-.52-.52V6.77c.37,0,.75,0,1.13,.01v4.85Z"/>
        <rect class="cls-2" x="17.07" y="10.23" width="4.93" height="7.82" rx="1.9" ry="1.9"/>
        <path class="cls-2" d="M22,6.95v5.19h-4.93v-1.42c.17-.49,.44-1.11,.86-1.77,.27-.42,.57-.88,1.11-1.36,0,0,.66-.59,1.77-.98,.23-.08,.53-.17,.82-.04,.13,.05,.22,.13,.27,.18l.1,.2Z"/>
      </g>
    </g>
  </g>
</svg>