<?xml version="1.0" encoding="UTF-8"?>
<svg id="_图层_2" data-name="图层 2" xmlns="http://www.w3.org/2000/svg" viewBox="0 0 29.62 29.62">
  <defs>
    <style>
      .cls-1 {
        fill: #fff;
      }

      .cls-2 {
        fill: #f4ba19;
      }
    </style>
  </defs>
  <g id="_图层_2-2" data-name="图层 2">
    <g>
      <circle class="cls-2" cx="14.81" cy="14.81" r="14.81"/>
      <g>
        <circle class="cls-1" cx="14.69" cy="9.61" r="3.16"/>
        <path class="cls-1" d="M14.24,14.84v8.33s-1.02-1.34-3.06-1.53-3.26-.16-3.26-.16c0,0-1.09-.06-1.18-.57s0-7.4,0-7.4c0,0-.03-.41,.48-.57s2.78,0,2.78,0c0,0,1.91,.53,2.36,.76s1.88,1.15,1.88,1.15Z"/>
        <path class="cls-1" d="M15.38,14.84v8.33s1.02-1.34,3.06-1.53,3.26-.16,3.26-.16c0,0,1.09-.06,1.18-.57s0-7.4,0-7.4c0,0,.03-.41-.48-.57s-2.78,0-2.78,0c0,0-1.91,.53-2.36,.76s-1.88,1.15-1.88,1.15Z"/>
      </g>
    </g>
  </g>
</svg>