<?xml version="1.0" encoding="UTF-8"?>
<svg id="_图层_2" data-name="图层 2" xmlns="http://www.w3.org/2000/svg" viewBox="0 0 29.62 29.62">
  <defs>
    <style>
      .cls-1 {
        fill: #33bf9e;
      }

      .cls-2 {
        fill: #f7f7f7;
      }
    </style>
  </defs>
  <g id="_图层_2-2" data-name="图层 2">
    <g>
      <circle class="cls-1" cx="14.81" cy="14.81" r="14.81"/>
      <g>
        <rect class="cls-2" x="14.05" y="6.64" width="1.47" height="16.6" rx=".73" ry=".73"/>
        <circle class="cls-2" cx="8.63" cy="7.98" r="1.6"/>
        <circle class="cls-2" cx="20.87" cy="7.98" r="1.6"/>
        <path class="cls-2" d="M12.92,16.77l-1.13-3.89s-.01-.01-.01-.02c-.28-1.4-1.51-2.46-3-2.46-1.06,0-1.99,.53-2.54,1.35-.22,.32-.37,.69-.45,1.08,0,.02-.03,.03-.03,.04l-1.19,3.89c-.1,.34,.15,.69,.51,.69h7.32c.36,0,.61-.34,.51-.68Z"/>
        <path class="cls-2" d="M25.05,16.77l-1.13-3.89s-.01-.01-.01-.02c-.28-1.4-1.51-2.46-3-2.46-1.06,0-1.99,.53-2.54,1.35-.22,.32-.37,.69-.45,1.08,0,.02-.03,.03-.03,.04l-1.19,3.89c-.1,.34,.15,.69,.51,.69h7.32c.36,0,.61-.34,.51-.68Z"/>
        <path class="cls-2" d="M24.27,18.52l-.92-3.02s0,0-.01-.01c-.23-1.09-1.23-1.91-2.44-1.91-.86,0-1.62,.42-2.07,1.05-.18,.25-.3,.53-.37,.84,0,.01-.02,.02-.03,.03l-.97,3.02c-.09,.27,.12,.54,.42,.54h5.97c.29,0,.5-.27,.42-.53Z"/>
        <rect class="cls-2" x="9.46" y="16.31" width="1.53" height="6.41" rx=".69" ry=".69"/>
        <rect class="cls-2" x="6.45" y="16.31" width="1.53" height="6.41" rx=".69" ry=".69"/>
        <g>
          <rect class="cls-2" x="21.61" y="16.31" width="1.53" height="6.41" rx=".69" ry=".69"/>
          <rect class="cls-2" x="18.6" y="16.31" width="1.53" height="6.41" rx=".69" ry=".69"/>
        </g>
      </g>
    </g>
  </g>
</svg>