<?xml version="1.0" encoding="UTF-8"?>
<svg id="_图层_2" data-name="图层 2" xmlns="http://www.w3.org/2000/svg" viewBox="0 0 29.62 29.62">
  <defs>
    <style>
      .cls-1 {
        fill: #fff;
      }

      .cls-2 {
        fill: #a029ff;
      }
    </style>
  </defs>
  <g id="_图层_2-2" data-name="图层 2">
    <g>
      <circle class="cls-2" cx="14.81" cy="14.81" r="14.81"/>
      <path class="cls-1" d="M21.1,15.86c-.06-.47-.53-1.61-1.81-4.04,0,0-1.42-2.45-3.43-4.55-.38-.4-1.01-1.03-1.45-.83-.28,.13-.59,.45-.63,.59l-2.86,3.93c-.41,.42-2.16,2.89-2.41,5.04-.07,.6-.23,2.74,1.24,4.69,.11,.15,2.13,2.72,5.39,2.52,1.96-.12,3.25-1.17,3.61-1.47,1.81-1.51,2.57-3.86,2.33-5.87Zm-6.45,5.5h-.04c-.48,0-1.97-.11-3.18-1.3-1.25-1.23-1.34-2.77-1.34-3.22,0-.41,.34-.75,.75-.75h0c.41,0,.75,.34,.75,.75,0,.29,.06,1.32,.89,2.15,.83,.82,1.85,.88,2.15,.87,.38-.03,.75,.33,.76,.74s-.33,.75-.74,.76Z"/>
    </g>
  </g>
</svg>