<?xml version="1.0" encoding="UTF-8"?>
<svg id="_图层_2" data-name="图层 2" xmlns="http://www.w3.org/2000/svg" viewBox="0 0 29.62 29.62">
  <defs>
    <style>
      .cls-1 {
        fill: #1a5edb;
      }

      .cls-2 {
        fill: #f7f7f7;
      }
    </style>
  </defs>
  <g id="_图层_2-2" data-name="图层 2">
    <g>
      <circle class="cls-1" cx="14.81" cy="14.81" r="14.81"/>
      <g>
        <circle class="cls-2" cx="11.67" cy="10.51" r="4.16"/>
        <path class="cls-2" d="M14.94,16.58c-.32-.07-.65-.11-.98-.11h-4.95c-2.56,0-4.65,2.09-4.65,4.65h0c0,.59,.12,1.15,.33,1.67,4.22-.11,8.45-.01,12.69,.15-2.23-1.22-3.04-4-2.43-6.35Z"/>
        <path class="cls-2" d="M20.52,13.8c-2.62,0-4.74,2.12-4.74,4.74s2.12,4.74,4.74,4.74,4.74-2.12,4.74-4.74-2.12-4.74-4.74-4.74Zm-.19,2.16c.39,0,.71,.32,.71,.71s-.32,.71-.71,.71-.71-.32-.71-.71,.32-.71,.71-.71Zm.98,4.84h-1.59c-.3,0-.55-.25-.55-.55s.25-.55,.55-.55h.37v-.91h-.24c-.25,0-.46-.21-.46-.46s.21-.46,.46-.46h.62c.25,0,.46,.21,.46,.46,0,.02,0,.03-.01,.05,0,.03,.02,.06,.02,.09v1.24h.37c.3,0,.55,.25,.55,.55s-.25,.55-.55,.55Z"/>
      </g>
    </g>
  </g>
</svg>