<?xml version="1.0" encoding="UTF-8"?>
<svg id="_图层_2" data-name="图层 2" xmlns="http://www.w3.org/2000/svg" viewBox="0 0 30.06 30.06">
  <defs>
    <style>
      .cls-1 {
        fill: #1a5edb;
      }

      .cls-2 {
        fill: #f7f7f7;
      }
    </style>
  </defs>
  <g id="_图层_2-2" data-name="图层 2">
    <g>
      <circle class="cls-1" cx="15.03" cy="15.03" r="15.03"/>
      <g>
        <path class="cls-2" d="M4.73,22.64V9.24c.11,0,.08,.1,.1,.15,.68,2.03,1.36,4.05,2.03,6.08,.3,.92,.94,1.38,1.91,1.38,.94,0,1.88,0,2.82,0q.43,0,.43,.42c0,.05,0,.11,0,.16,.02,.37,.26,.62,.62,.63,1.6,0,3.19,0,4.79,0,.37,0,.61-.26,.62-.62,0-.13,.01-.27,0-.4-.02-.16,.04-.18,.19-.18,1.03,0,2.07,0,3.1,0,.92,0,1.57-.47,1.86-1.33,.38-1.14,.76-2.27,1.14-3.41,.33-.98,.65-1.95,.98-2.93,.03,.03,.03,.06,.03,.09,0,4.35,0,8.69,0,13.04,0,1-.8,1.79-1.81,1.79-5.66,0-11.32,0-16.98,0-.71,0-1.25-.34-1.6-.96-.09-.16-.09-.34-.21-.49Z"/>
        <path class="cls-2" d="M24.3,8.39c-.25,.77-.5,1.51-.75,2.26-.49,1.48-.99,2.96-1.48,4.43-.14,.43-.31,.55-.76,.55-1.03,0-2.05,0-3.08,0-.15,0-.2-.04-.18-.19,.01-.12,0-.24,0-.36,0-.41-.26-.66-.67-.66-.83,0-1.66,0-2.5,0-.72,0-1.44,0-2.15,0-.48,0-.71,.24-.72,.71,0,.16,.07,.37-.03,.46-.1,.1-.31,.03-.46,.03-.94,0-1.88,0-2.82,0-.37,0-.56-.12-.68-.47-.75-2.24-1.5-4.48-2.25-6.73,0,0,0-.01,0-.03,.06-.04,.14-.02,.21-.02,1.54,0,3.09,0,4.63,0,.16,0,.2-.05,.19-.2-.02-.44-.01-.88,.23-1.28,.34-.58,.84-.92,1.5-.93,1.66-.02,3.33-.02,4.99,0,.93,0,1.7,.79,1.73,1.72,0,.17,.01,.34,0,.5-.01,.15,.03,.19,.18,.19,1.54,0,3.09,0,4.63,0,.07,0,.14,0,.23,0Zm-9.27,0c.82,0,1.65,0,2.47,0,.18,0,.43,.08,.52-.03,.09-.12,.03-.36,.03-.54-.01-.37-.26-.62-.62-.62-1.6,0-3.19,0-4.79,0-.37,0-.61,.26-.63,.62,0,.13,.01,.27,0,.4-.02,.15,.04,.19,.19,.18,.95,0,1.89,0,2.84,0Z"/>
        <path class="cls-2" d="M15.03,16.85c-.55,0-1.1,0-1.65,0-.13,0-.17-.03-.16-.16,.01-.31,0-.62,0-.93,0-.1,.03-.12,.12-.12,1.13,0,2.25,0,3.38,0,.1,0,.13,.03,.12,.12,0,.32,0,.63,0,.95,0,.11-.03,.14-.14,.14-.56,0-1.11,0-1.67,0Z"/>
      </g>
    </g>
  </g>
</svg>