<?xml version="1.0" encoding="UTF-8"?>
<svg id="_图层_2" data-name="图层 2" xmlns="http://www.w3.org/2000/svg" viewBox="0 0 29.84 29.84">
  <defs>
    <style>
      .cls-1 {
        fill: #1a5edb;
      }

      .cls-2 {
        fill: #f7f7f7;
      }
    </style>
  </defs>
  <g id="_图层_2-2" data-name="图层 2">
    <g>
      <circle class="cls-1" cx="14.92" cy="14.92" r="14.92"/>
      <g>
        <path class="cls-2" d="M10.73,9.9c0-2.32,1.86-4.19,4.18-4.19,2.34,0,4.2,1.86,4.2,4.19,0,2.32-1.87,4.18-4.19,4.18-2.32,0-4.19-1.86-4.19-4.18Z"/>
        <path class="cls-2" d="M15.27,24.13c.1-.1,.15-.17,.21-.23,.8-.8,1.6-1.61,2.41-2.4,.35-.34,.43-.69,.27-1.16-.58-1.69-1.14-3.39-1.71-5.09-.03-.1-.06-.2-.1-.32,.7-.05,1.36,.03,2,.22,2.71,.84,4.36,2.67,4.84,5.46,.16,.91,.08,1.86,.07,2.79,0,.37-.38,.71-.75,.71-2.4,0-4.8,0-7.26,0Z"/>
        <path class="cls-2" d="M13.47,14.93c-.03,.11-.06,.21-.09,.31-.57,1.7-1.13,3.4-1.71,5.09-.16,.47-.08,.83,.28,1.18,.81,.78,1.6,1.58,2.39,2.38,.07,.06,.13,.13,.23,.24-.13,0-.22,0-.3,0-2.26,0-4.52,0-6.77,0-.63,0-.95-.32-.95-.95,0-.79-.03-1.59,.06-2.37,.28-2.29,1.49-3.99,3.5-5.11,.97-.54,2.02-.79,3.13-.78,.07,0,.14,0,.23,.01Z"/>
        <path class="cls-2" d="M14.93,15.96c.03,.07,.06,.14,.08,.21,.47,1.39,.93,2.78,1.4,4.17,.05,.15,.04,.25-.08,.36-.47,.46-.94,.93-1.42,1.41-.51-.51-1-1-1.49-1.5-.04-.04-.05-.13-.03-.18,.49-1.48,.99-2.96,1.49-4.44,0-.01,.03-.02,.06-.04Z"/>
      </g>
    </g>
  </g>
</svg>