<?xml version="1.0" encoding="UTF-8"?>
<svg id="_图层_2" data-name="图层 2" xmlns="http://www.w3.org/2000/svg" viewBox="0 0 29.62 29.62">
  <defs>
    <style>
      .cls-1 {
        fill: #f7f7f7;
      }

      .cls-2 {
        fill: #a029ff;
      }
    </style>
  </defs>
  <g id="_图层_2-2" data-name="图层 2">
    <g>
      <circle class="cls-2" cx="14.81" cy="14.81" r="14.81"/>
      <g>
        <rect class="cls-1" x="6.65" y="9.31" width="3.9" height="1.78" rx=".84" ry=".84"/>
        <rect class="cls-1" x="13.63" y="7.06" width="3.24" height="1.78" rx=".84" ry=".84"/>
        <rect class="cls-1" x="7.38" y="17.27" width="7.57" height="1.59" rx=".75" ry=".75"/>
        <rect class="cls-1" x="10.79" y="11.26" width="8.2" height="1.59" rx=".75" ry=".75"/>
        <rect class="cls-1" x="5.7" y="14.3" width="7.69" height="1.59" rx=".75" ry=".75" transform="translate(27.31 13.33) rotate(116.63)"/>
        <rect class="cls-1" x="11.82" y="14.39" width="7.69" height="1.59" rx=".75" ry=".75" transform="translate(36.26 7.98) rotate(116.63)"/>
        <rect class="cls-1" x="7.77" y="13.26" width="9.26" height="1.59" rx=".75" ry=".75" transform="translate(16.14 -4.32) rotate(52.91)"/>
        <rect class="cls-1" x="12.66" y="12.4" width="12.91" height="1.59" rx=".75" ry=".75" transform="translate(20.98 -9.95) rotate(60)"/>
        <path class="cls-1" d="M10.93,18.75c-.06,0-.11-.02-.17-.02-.3,1.28-1.43,2.24-2.8,2.24-1.6,0-2.9-1.3-2.9-2.9s1.3-2.9,2.9-2.9c.31,0,.61,.06,.89,.16,.04-.18,.1-.36,.21-.53,.01-.02,.02-.05,.04-.07,.05-.13,.09-.27,.14-.4,.06-.16,.13-.32,.2-.48-.46-.16-.95-.27-1.47-.27-2.47,0-4.49,2.01-4.49,4.49s2.01,4.49,4.49,4.49c2.26,0,4.1-1.7,4.4-3.88-.28,0-.55-.01-.83-.02-.19,.06-.39,.09-.6,.09Z"/>
        <path class="cls-1" d="M21.66,22.55c-2.47,0-4.49-2.01-4.49-4.49s2.01-4.49,4.49-4.49,4.49,2.01,4.49,4.49-2.01,4.49-4.49,4.49Zm0-7.39c-1.6,0-2.9,1.3-2.9,2.9s1.3,2.9,2.9,2.9,2.9-1.3,2.9-2.9-1.3-2.9-2.9-2.9Z"/>
      </g>
    </g>
  </g>
</svg>