<?xml version="1.0" encoding="UTF-8"?>
<svg id="_图层_2" data-name="图层 2" xmlns="http://www.w3.org/2000/svg" viewBox="0 0 29.62 29.62">
  <defs>
    <style>
      .cls-1 {
        fill: #5e768b;
      }

      .cls-2 {
        fill: #f7f7f7;
      }
    </style>
  </defs>
  <g id="_图层_2-2" data-name="图层 2">
    <g>
      <circle class="cls-1" cx="14.81" cy="14.81" r="14.81"/>
      <path class="cls-2" d="M13.24,16.22l-.46-6.81c-.09-1.33-.13-2.28-.13-2.86,0-.79,.21-1.4,.62-1.84s.96-.66,1.63-.66c.82,0,1.36,.28,1.64,.85s.41,1.38,.41,2.44c0,.63-.03,1.26-.1,1.91l-.61,7.01c-.07,.83-.21,1.47-.43,1.92s-.58,.67-1.08,.67-.87-.22-1.07-.65-.34-1.09-.43-1.97Zm1.58,9.36c-.58,0-1.08-.19-1.51-.56s-.65-.9-.65-1.57c0-.59,.21-1.09,.62-1.5s.92-.62,1.51-.62,1.11,.21,1.53,.62,.63,.91,.63,1.5c0,.66-.21,1.18-.64,1.56-.43,.38-.92,.57-1.49,.57Z"/>
    </g>
  </g>
</svg>