<?xml version="1.0" encoding="UTF-8"?>
<svg id="_图层_2" data-name="图层 2" xmlns="http://www.w3.org/2000/svg" viewBox="0 0 29.62 29.62">
  <defs>
    <style>
      .cls-1 {
        fill: #5e768b;
      }

      .cls-2 {
        fill: #f7f7f7;
      }
    </style>
  </defs>
  <g id="_图层_2-2" data-name="图层 2">
    <g>
      <circle class="cls-1" cx="14.81" cy="14.81" r="14.81"/>
      <g>
        <path class="cls-2" d="M13.77,16.87v6.18c0,.67,.55,1.22,1.22,1.22h0c.67,0,1.22-.55,1.22-1.22v-6.17c-.81,0-1.63-.01-2.44-.01Z"/>
        <path class="cls-2" d="M14.81,5.35c-2.99,0-5.41,2.42-5.41,5.41s2.42,5.41,5.41,5.41,5.41-2.42,5.41-5.41-2.42-5.41-5.41-5.41Zm.53,2.96s-1.23-.21-2.08,.66c-.82,.83-.66,1.92-.64,2.04,.05,.32-.16,.62-.48,.68-.03,0-.07,0-.1,0-.28,0-.53-.2-.58-.49-.03-.18-.27-1.82,.96-3.07,1.26-1.28,2.94-1.03,3.13-.99,.32,.06,.53,.36,.48,.68-.06,.32-.36,.53-.68,.48Z"/>
      </g>
    </g>
  </g>
</svg>