<?xml version="1.0" encoding="UTF-8"?>
<svg id="_图层_2" data-name="图层 2" xmlns="http://www.w3.org/2000/svg" viewBox="0 0 29.62 29.62">
  <defs>
    <style>
      .cls-1 {
        fill: #f7f7f7;
      }

      .cls-2 {
        fill: #a029ff;
      }
    </style>
  </defs>
  <g id="_图层_2-2" data-name="图层 2">
    <g>
      <circle class="cls-2" cx="14.81" cy="14.81" r="14.81"/>
      <g>
        <path class="cls-1" d="M22.06,15.28c-.51-.26-1.13-.06-1.38,.45-.26,.51-.06,1.13,.45,1.38,.68,.35,1.12,1.01,1.15,1.74,.02,.61-.13,1.11-.45,1.26-.24,.11-1.12,.09-1.12,.09h-2.62v-1.25c0-.75-.9-1.13-1.44-.61l-2.31,2.24c-.34,.33-.34,.88,0,1.22l2.31,2.24c.54,.52,1.44,.14,1.44-.61v-1.17l2.71-.03s1.57,.05,1.96-.15c.51-.26,1.63-1.5,1.58-3.29-.05-1.48-.92-2.82-2.27-3.51Z"/>
        <path class="cls-1" d="M10.92,22.17c.53-.22,.78-.81,.56-1.34-.22-.53-.82-.78-1.34-.56-.71,.29-1.5,.18-2.07-.27-.47-.38-.75-.83-.66-1.16,.07-.26,.66-.9,.66-.9l1.72-1.98,.95,.82c.57,.49,1.45,.06,1.4-.69l-.18-3.21c-.03-.48-.44-.84-.92-.8l-3.2,.28c-.75,.06-1.05,1-.48,1.49l.88,.76-1.75,2.06s-1.07,1.15-1.17,1.58c-.14,.56,.06,2.21,1.46,3.35,1.15,.93,2.73,1.16,4.14,.58Z"/>
        <path class="cls-1" d="M11.03,10.08c.09,.56,.61,.95,1.18,.86,.56-.09,.95-.61,.86-1.18-.12-.76,.17-1.5,.74-1.95,.48-.37,.98-.54,1.29-.37,.23,.13,.72,.85,.72,.85l1.53,2.13-1.02,.73c-.61,.44-.39,1.39,.35,1.52l3.16,.56c.47,.08,.92-.24,.99-.71l.47-3.18c.11-.74-.73-1.25-1.34-.81l-.95,.68-1.61-2.18s-.88-1.3-1.27-1.5c-.51-.26-2.17-.45-3.59,.65-1.17,.9-1.75,2.39-1.52,3.9Z"/>
      </g>
    </g>
  </g>
</svg>