<?xml version="1.0" encoding="UTF-8"?>
<svg id="_图层_2" data-name="图层 2" xmlns="http://www.w3.org/2000/svg" viewBox="0 0 29.62 29.62">
  <defs>
    <style>
      .cls-1 {
        fill: #fff;
      }

      .cls-2 {
        fill: #f4ba19;
      }
    </style>
  </defs>
  <g id="_图层_2-2" data-name="图层 2">
    <g>
      <circle class="cls-2" cx="14.81" cy="14.81" r="14.81"/>
      <path class="cls-1" d="M22.02,17.64V7.77c0-.68-.55-1.23-1.23-1.23H10.4c-.11,0-.2,.04-.3,.06-.02,0-.03,0-.05,0-.06,.02-.12,.03-.17,.05-1.31,.36-2.29,1.56-2.29,2.98v10.34c0,1.61,1.24,2.92,2.81,3.08,.05,0,.1,.03,.15,.03h10.47c.55,0,1-.45,1-1s-.45-1-1-1h-.06v-2.25c.6-.09,1.06-.58,1.06-1.2Zm-3.06,3.45H10.81c-.61,0-1.11-.5-1.11-1.11h0c0-.61,.5-1.11,1.11-1.11h2.89s.07,.02,.11,.02v-.02h5.15v2.21Zm-.4-7.28h-6.34c-.32,0-.57-.26-.57-.57s.26-.57,.57-.57h6.34c.32,0,.57,.26,.57,.57s-.26,.57-.57,.57Zm0-2.13h-6.34c-.32,0-.57-.26-.57-.57s.26-.57,.57-.57h6.34c.32,0,.57,.26,.57,.57s-.26,.57-.57,.57Z"/>
    </g>
  </g>
</svg>