<?xml version="1.0" encoding="UTF-8"?>
<svg id="_图层_2" data-name="图层 2" xmlns="http://www.w3.org/2000/svg" viewBox="0 0 29.62 29.62">
  <defs>
    <style>
      .cls-1 {
        fill: #fff;
      }

      .cls-2 {
        fill: #d4121b;
      }
    </style>
  </defs>
  <g id="_图层_2-2" data-name="图层 2">
    <g>
      <circle class="cls-2" cx="14.81" cy="14.81" r="14.81"/>
      <g>
        <path class="cls-1" d="M7.51,7.3c-1.29,0-2.34,1.05-2.34,2.34v10.33c0,1.29,1.05,2.34,2.34,2.34h1.01V7.3h-1.01Z"/>
        <path class="cls-1" d="M9.64,7.3v15.02h10.39V7.3H9.64Zm8.5,8.11c0,.26-.21,.47-.47,.47h-1.76v1.71c0,.29-.23,.52-.52,.52h-1.19c-.29,0-.52-.23-.52-.52v-1.71h-1.76c-.26,0-.47-.21-.47-.47v-1.29c0-.26,.21-.47,.47-.47h1.76v-1.71c0-.29,.23-.52,.52-.52h1.19c.29,0,.52,.23,.52,.52v1.71h1.76c.26,0,.47,.21,.47,.47v1.29Z"/>
        <path class="cls-1" d="M22.1,7.3h-.94v15.02h.94c1.29,0,2.34-1.05,2.34-2.34V9.64c0-1.29-1.05-2.34-2.34-2.34Z"/>
      </g>
    </g>
  </g>
</svg>