<?xml version="1.0" encoding="UTF-8"?>
<svg id="_图层_2" data-name="图层 2" xmlns="http://www.w3.org/2000/svg" viewBox="0 0 29.62 29.62">
  <defs>
    <style>
      .cls-1 {
        fill: #d4121b;
      }

      .cls-2 {
        fill: #f7f7f7;
      }
    </style>
  </defs>
  <g id="_图层_2-2" data-name="图层 2">
    <g>
      <circle class="cls-1" cx="14.81" cy="14.81" r="14.81"/>
      <g>
        <g>
          <circle class="cls-2" cx="14.75" cy="13.69" r="1.56"/>
          <path class="cls-2" d="M17.39,17.92s0-.05,0-.08c0-.92-.75-1.67-1.67-1.67h-1.96c-.92,0-1.67,.75-1.67,1.67,0,.03,0,.05,0,.08h5.28Z"/>
          <rect class="cls-2" x="12.1" y="17.37" width="5.3" height="1.03" rx=".36" ry=".36"/>
        </g>
        <g>
          <ellipse class="cls-2" cx="11.52" cy="13.39" rx="1.29" ry="1.27"/>
          <path class="cls-2" d="M11.84,16.92c.03-.06,.05-.11,.09-.17,.11-.2,.24-.38,.39-.55,0,0,0,0,.01-.01,.04-.05,.08-.11,.12-.16,.14-.17,.29-.32,.46-.47-.18-.08-.37-.14-.57-.14h-1.62c-.73,0-1.33,.58-1.37,1.3,0,.01,0,.02,0,.03v.13c0,.2,.16,.36,.36,.36h1.98c.04-.11,.11-.21,.16-.31Z"/>
        </g>
        <g>
          <ellipse class="cls-2" cx="18.05" cy="13.39" rx="1.29" ry="1.27"/>
          <path class="cls-2" d="M17.73,16.92c-.03-.06-.05-.11-.09-.17-.11-.2-.24-.38-.39-.55,0,0,0,0-.01-.01-.04-.05-.08-.11-.12-.16-.14-.17-.29-.32-.46-.47,.18-.08,.37-.14,.57-.14h1.62c.73,0,1.33,.58,1.37,1.3,0,.01,0,.02,0,.03v.13c0,.2-.16,.36-.36,.36h-1.98c-.04-.11-.11-.21-.16-.31Z"/>
        </g>
        <g>
          <rect class="cls-2" x="4.83" y="19.61" width="6.11" height="1.4" rx=".7" ry=".7" transform="translate(-11.88 11.15) rotate(-43.91)"/>
          <rect class="cls-2" x="7.26" y="19.6" width="4.65" height="1.4" rx=".7" ry=".7" transform="translate(-10.72 29.89) rotate(-90)"/>
          <rect class="cls-2" x="5.64" y="17.98" width="4.65" height="1.4" rx=".7" ry=".7"/>
        </g>
        <g>
          <rect class="cls-2" x="4.61" y="9.23" width="6.11" height="1.4" rx=".7" ry=".7" transform="translate(9.51 -2.48) rotate(46.09)"/>
          <rect class="cls-2" x="5.35" y="10.93" width="4.65" height="1.4" rx=".7" ry=".7"/>
          <rect class="cls-2" x="6.97" y="9.31" width="4.65" height="1.4" rx=".7" ry=".7" transform="translate(19.3 .71) rotate(90)"/>
        </g>
        <g>
          <rect class="cls-2" x="18.67" y="19.61" width="6.11" height="1.4" rx=".7" ry=".7" transform="translate(23.3 50.02) rotate(-136.09)"/>
          <rect class="cls-2" x="17.71" y="19.6" width="4.65" height="1.4" rx=".7" ry=".7" transform="translate(-.27 40.34) rotate(-90)"/>
          <rect class="cls-2" x="19.33" y="17.98" width="4.65" height="1.4" rx=".7" ry=".7" transform="translate(43.31 37.36) rotate(180)"/>
        </g>
        <g>
          <rect class="cls-2" x="18.9" y="9.23" width="6.11" height="1.4" rx=".7" ry=".7" transform="translate(44.33 1.01) rotate(133.91)"/>
          <rect class="cls-2" x="19.62" y="10.93" width="4.65" height="1.4" rx=".7" ry=".7" transform="translate(43.89 23.26) rotate(180)"/>
          <rect class="cls-2" x="18" y="9.31" width="4.65" height="1.4" rx=".7" ry=".7" transform="translate(30.33 -10.31) rotate(90)"/>
        </g>
      </g>
    </g>
  </g>
</svg>