<?xml version="1.0" encoding="UTF-8"?>
<svg id="_图层_2" data-name="图层 2" xmlns="http://www.w3.org/2000/svg" viewBox="0 0 29.62 29.62">
  <defs>
    <style>
      .cls-1 {
        fill: #5e768b;
      }

      .cls-2 {
        fill: #f7f7f7;
      }
    </style>
  </defs>
  <g id="_图层_2-2" data-name="图层 2">
    <g>
      <circle class="cls-1" cx="14.81" cy="14.81" r="14.81"/>
      <path class="cls-2" d="M7.7,9.99c0-.9,.29-1.81,.87-2.74,.58-.92,1.42-1.69,2.53-2.3,1.11-.61,2.4-.91,3.88-.91,1.37,0,2.59,.25,3.64,.76,1.05,.51,1.86,1.2,2.44,2.07,.57,.87,.86,1.82,.86,2.84,0,.81-.16,1.51-.49,2.12-.33,.61-.72,1.13-1.17,1.57s-1.26,1.18-2.42,2.23c-.32,.29-.58,.55-.77,.77-.19,.22-.34,.43-.43,.61-.09,.18-.17,.37-.22,.55-.05,.18-.13,.51-.23,.97-.18,.99-.74,1.48-1.69,1.48-.49,0-.91-.16-1.24-.48-.34-.32-.5-.8-.5-1.44,0-.8,.12-1.49,.37-2.07,.25-.58,.57-1.09,.98-1.54,.41-.44,.96-.96,1.65-1.57,.61-.53,1.05-.93,1.32-1.2s.5-.57,.68-.9c.18-.33,.28-.69,.28-1.08,0-.76-.28-1.4-.85-1.92-.56-.52-1.29-.78-2.18-.78-1.04,0-1.81,.26-2.3,.79-.49,.53-.91,1.3-1.25,2.32-.32,1.07-.93,1.61-1.83,1.61-.53,0-.98-.19-1.34-.56-.36-.37-.55-.78-.55-1.22Zm6.94,15.58c-.58,0-1.08-.19-1.51-.56-.43-.37-.65-.9-.65-1.57,0-.6,.21-1.1,.63-1.51,.42-.41,.93-.61,1.54-.61s1.1,.2,1.51,.61c.41,.41,.61,.91,.61,1.51,0,.66-.21,1.19-.64,1.56-.43,.38-.92,.57-1.48,.57Z"/>
    </g>
  </g>
</svg>