<?xml version="1.0" encoding="UTF-8"?>
<svg id="_图层_2" data-name="图层 2" xmlns="http://www.w3.org/2000/svg" viewBox="0 0 29.62 29.62">
  <defs>
    <style>
      .cls-1 {
        fill: #5e768b;
      }

      .cls-2 {
        fill: #f7f7f7;
      }
    </style>
  </defs>
  <g id="_图层_2-2" data-name="图层 2">
    <g>
      <circle class="cls-1" cx="14.81" cy="14.81" r="14.81"/>
      <path class="cls-2" d="M24.38,19.72l-5.41-5.05,5.05-5.41c.72-.77,.67-1.97-.09-2.68l-1.53-1.43c-.77-.72-1.97-.67-2.68,.09l-5.05,5.41-5.41-5.05c-.77-.72-1.97-.67-2.68,.09l-1.43,1.53c-.72,.77-.67,1.97,.09,2.68l5.41,5.05-5.05,5.41c-.72,.77-.67,1.97,.09,2.68l1.53,1.43c.77,.72,1.97,.67,2.68-.09l5.05-5.41,5.41,5.05c.77,.72,1.97,.67,2.68-.09l1.43-1.53c.72-.77,.67-1.97-.09-2.68Z"/>
    </g>
  </g>
</svg>