<?xml version="1.0" encoding="UTF-8"?>
<svg width="440" height="880" viewBox="0 -1 437 873" xmlns="http://www.w3.org/2000/svg" version="1.1">
    <path d="M 35,0 L 35,0 L 195,0 L 353,0 a 35,35 0 0,1 35,35 L 388,35 L 388,195 L 388,355 L 388,515 L 388,675 L 388,788 a 35,35 0 0,1 -35,35 L 353,823 L 193,823 L 35,823 a 35,35 0 0,1 -35,-35 L 0,788 L 0,628 L 0,468 L 0,308 L 0,148 L 0,35 a 35,35 0 0,1 35,-35 " stroke-width="0" fill="#ffffff" stroke-linecap="butt" transform="translate(24 22) rotate(0) scale(1 1) " fill-opacity="1"></path>
    <path d="M0.5 0.5 C0.5 0.5, 0.5 0.5, 0.5 0.5 C37.8 -2.8, 78.6 -0.1, 160.5 0.5 C212.4 2.1, 264.7 1.0, 320.5 0.5 C368.1 -0.8, 418.1 -1.6, 480.5 0.5 C538.7 2.2, 601.8 1.1, 640.5 0.5 C670.1 4.4, 699.4 1.1, 775.5 0.5 C775.5 0.5, 775.5 0.5, 775.5 0.5 C773.9 23.1, 775.5 47.6, 775.5 63.5 C775.5 63.5, 775.5 63.5, 775.5 63.5 C731.8 65.1, 682.1 67.1, 615.5 63.5 C568.5 64.2, 521.6 60.5, 455.5 63.5 C399.6 64.7, 351.2 64.1, 295.5 63.5 C248.8 62.2, 202.2 62.6, 135.5 63.5 C104.6 64.3, 68.2 62.5, 0.5 63.5 C0.5 63.5, 0.5 63.5, 0.5 63.5 C-0.3 49.7, -0.6 32.0, 0.5 0.5" stroke-width="3" fill="#ffffff" stroke-linecap="round" transform="translate(24 20) rotate(0) scale(0.5 0.5) " fill-opacity="1" stroke-opacity="1"></path>
    <g clip-path="url(#mockupView-ui-5-3-mask-0)"><path d="M576 0c13.3 0 24 10.7 24 24V488c0 13.3-10.7 24-24 24s-24-10.7-24-24V24c0-13.3 10.7-24 24-24zM448 96c13.3 0 24 10.7 24 24V488c0 13.3-10.7 24-24 24s-24-10.7-24-24V120c0-13.3 10.7-24 24-24zM320 192c13.3 0 24 10.7 24 24V488c0 13.3-10.7 24-24 24s-24-10.7-24-24V216c0-13.3 10.7-24 24-24zM192 288c13.3 0 24 10.7 24 24V488c0 13.3-10.7 24-24 24s-24-10.7-24-24V312c0-13.3 10.7-24 24-24zM64 384c13.3 0 24 10.7 24 24v80c0 13.3-10.7 24-24 24s-24-10.7-24-24V408c0-13.3 10.7-24 24-24z" transform="translate(327 37.5) rotate(0) scale(0.0234375 0.0234375) " fill="#333333" fill-opacity="1"></path></g>
    <g clip-path="url(#mockupView-ui-5-3-mask-0)"><g fill="#333333"><text font-family="Balsamiq Sans" font-size="12" color="#333333" font-style="normal" font-weight="normal" text-decoration="normal" fill-opacity="1" style="font-family:Balsamiq Sans;" x="0" y="9.448818897637794" transform="translate(52 40) rotate(0) scale(1 1) "><tspan x="0">09:52 AM</tspan></text></g></g>
    <g clip-path="url(#mockupView-ui-5-3-mask-0)"><path d="M39.9 185.7C114.6 119.9 212.6 80 320 80s205.4 39.9 280.1 105.7c9.9 8.8 25.1 7.8 33.9-2.2s7.8-25.1-2.2-33.9C548.7 76.4 439.5 32 320 32S91.3 76.4 8.2 149.6c-9.9 8.8-10.9 23.9-2.2 33.9s23.9 10.9 33.9 2.2zM320 256c64.6 0 123.5 24.7 167.6 65.2c9.8 9 24.9 8.3 33.9-1.5s8.3-24.9-1.5-33.9C467.4 237.5 397.1 208 320 208s-147.4 29.5-200.1 77.9c-9.8 9-10.4 24.1-1.5 33.9s24.1 10.4 33.9 1.5C196.5 280.7 255.4 256 320 256zm56 168a56 56 0 1 0 -112 0 56 56 0 1 0 112 0z" transform="translate(347 37.5) rotate(0) scale(0.0234375 0.0234375) " fill="#333333" fill-opacity="1"></path></g>
    <g clip-path="url(#mockupView-ui-5-3-mask-0)"><path d="M464 144c17.7 0 32 14.3 32 32V336c0 17.7-14.3 32-32 32H80c-17.7 0-32-14.3-32-32V176c0-17.7 14.3-32 32-32H464zM80 96C35.8 96 0 131.8 0 176V336c0 44.2 35.8 80 80 80H464c44.2 0 80-35.8 80-80V320c17.7 0 32-14.3 32-32V224c0-17.7-14.3-32-32-32V176c0-44.2-35.8-80-80-80H80zm272 96H96V320H352V192z" transform="translate(367 36.833333333333336) rotate(0) scale(0.026041666666666668 0.026041666666666668) " fill="#333333" fill-opacity="1"></path></g>
    <path d="M50 0 C50 0, 50 0, 50 0 C109.8 0.8, 172.5 -0.9, 210 0 C256.8 -2.8, 302.3 -2.9, 370 0 C373.2 1.4, 378.4 1.3, 382 0 C408.8 0.0, 433.3 22.4, 432 50 C432 50, 432 50, 432 50 C433.4 105.1, 429.4 160.2, 432 210 C429.5 247.5, 432.7 279.7, 432 370 C432.7 420.1, 429.8 467.8, 432 530 C428.4 591.0, 432.0 652.7, 432 690 C431.0 724.3, 433.6 752.7, 432 817 C431.1 844.7, 407.5 867.1, 382 867 C382 867, 382 867, 382 867 C334.8 866.2, 285.3 866.3, 222 867 C173.0 867.9, 121.0 868.8, 62 867 C58.8 866.6, 52.1 868.1, 50 867 C21.3 864.9, -0.6 844.6, 0 817 C0 817, 0 817, 0 817 C2.1 762.9, -0.3 711.3, 0 657 C2.1 607.3, 3.4 556.6, 0 497 C-1.1 439.0, 2.9 380.5, 0 337 C1.0 273.3, 3.7 210.5, 0 177 C1.8 147.0, -1.2 117.5, 0 50 C-0.0 23.0, 24.7 0.6, 50 0M25 50 C25 50, 25 50, 25 50 C26.6 82.9, 25.4 117.2, 25 210 C22.1 260.1, 24.7 311.1, 25 370 C25.9 432.4, 26.6 499.6, 25 530 C26.3 591.8, 24.6 654.2, 25 690 C24.7 724.0, 24.6 756.4, 25 817 C26.6 831.6, 35.3 841.4, 50 842 C50 842, 50 842, 50 842 C110.2 841.8, 168.7 842.8, 210 842 C265.9 839.9, 321.2 842.4, 370 842 C374.7 841.5, 378.7 842.7, 382 842 C395.3 840.7, 408.2 830.1, 407 817 C407 817, 407 817, 407 817 C406.2 777.1, 405.5 739.0, 407 657 C407.3 622.2, 405.8 590.6, 407 497 C407.3 452.5, 405.5 407.8, 407 337 C407.2 280.7, 404.0 227.0, 407 177 C405.0 145.9, 404.5 116.9, 407 50 C407.0 34.9, 396.3 24.9, 382 25 C360.8 26.1, 343.0 23.6, 322 25 C321.1 27.5, 322.1 31.3, 322 35 C322.8 43.0, 316.8 49.9, 307 50 C307 50, 307 50, 307 50 C264.4 50.7, 218.0 50.8, 147 50 C140.9 51.6, 134.3 48.2, 125 50 C117.6 51.0, 109.0 42.3, 110 35 C109.4 32.3, 110.9 28.0, 110 25 C94.7 26.1, 80.8 23.5, 50 25 C36.8 24.5, 26.4 37.1, 25 50" 
        stroke-width="1.5" 
        fill="#c1c0c0" 
        stroke-linecap="round" 
        transform="translate(2 0) rotate(0) scale(1 1)" 
        stroke="#333333" 
        fill-opacity="1" 
        stroke-opacity="1"/>

    <path d="M0.2 0 C0.2 0, 0.2 0, 0.2 0 C0.7 0, 1.2 0, 1.7 0 C1.8 8.4e-18, 2 0.1, 2 0.2 C2 0.2, 2 0.2, 2 0.2 C2 8.7, 2 17.3, 2 34.7 C2 34.8, 1.8 35, 1.7 35 C1.7 35, 1.7 35, 1.7 35 C1.3 35, 0.9 35, 0.2 35 C0.1 35, 1.6e-17 34.8, 0 34.7 C0 34.7, 0 34.7, 0 34.7 C0 24.3, 0 13.9, 0 0.2 C-1.6e-17 0.1, 0.1 2.5e-17, 0.2 0" stroke-width="1.5" fill="#333333" stroke-linecap="round" transform="translate(0 110) rotate(0) scale(1 1) " stroke="#333333" fill-opacity="1" stroke-opacity="1"></path>

    <path d="M0.2 0 C0.2 0, 0.2 0, 0.2 0 C0.7 0, 1.2 0, 1.7 0 C1.8 8.4e-18, 2 0.1, 2 0.2 C2 0.2, 2 0.2, 2 0.2 C2 16.2, 2 32.1, 2 64.7 C2 64.8, 1.8 65, 1.7 65 C1.7 65, 1.7 65, 1.7 65 C1.3 65, 0.9 65, 0.2 65 C0.1 65, 1.6e-17 64.8, 0 64.7 C0 64.7, 0 64.7, 0 64.7 C0 45.3, 0 25.9, 0 0.2 C-1.6e-17 0.1, 0.1 2.5e-17, 0.2 0" stroke-width="1.5" fill="#333333" stroke-linecap="round" transform="translate(0 178) rotate(0) scale(1 1) " stroke="#333333" fill-opacity="1" stroke-opacity="1"></path>

    <path d="M0.2 0 C0.2 0, 0.2 0, 0.2 0 C0.7 0, 1.2 0, 1.7 0 C1.8 8.4e-18, 2 0.1, 2 0.2 C2 0.2, 2 0.2, 2 0.2 C2 16.2, 2 32.1, 2 64.7 C2 64.8, 1.8 65, 1.7 65 C1.7 65, 1.7 65, 1.7 65 C1.3 65, 0.9 65, 0.2 65 C0.1 65, 1.6e-17 64.8, 0 64.7 C0 64.7, 0 64.7, 0 64.7 C0 45.3, 0 25.9, 0 0.2 C-1.6e-17 0.1, 0.1 2.5e-17, 0.2 0" stroke-width="1.5" fill="#333333" stroke-linecap="round" transform="translate(0 255) rotate(0) scale(1 1) " stroke="#333333" fill-opacity="1" stroke-opacity="1"></path>

    <path d="M0.2 0 C0.2 0, 0.2 0, 0.2 0 C0.7 0, 1.2 0, 1.7 0 C1.8 8.4e-18, 2 0.1, 2 0.2 C2 0.2, 2 0.2, 2 0.2 C2 16.2, 2 32.1, 2 64.7 C2 64.8, 1.8 65, 1.7 65 C1.7 65, 1.7 65, 1.7 65 C1.3 65, 0.9 65, 0.2 65 C0.1 65, 1.6e-17 64.8, 0 64.7 C0 64.7, 0 64.7, 0 64.7 C0 45.3, 0 25.9, 0 0.2 C-1.6e-17 0.1, 0.1 2.5e-17, 0.2 0" stroke-width="1.5" fill="#333333" stroke-linecap="round" transform="translate(434 200) rotate(0) scale(1 1) " stroke="#333333" fill-opacity="1" stroke-opacity="1"></path>

    <path d="M5.5 0.5 C5.5 0.5, 5.5 0.5, 5.5 0.5 M5.5 0.5 C18.8 0.4, 32.6 1.3, 52.5 0.5 M52.5 0.5 C55.6 0.5, 58.2 2.7, 57.5 5 M57.5 5 C57.5 5, 57.5 5, 57.5 5 M57.5 5 C57.5 6.9, 54.4 8.9, 52.5 9.5 M52.5 9.5 C52.5 9.5, 52.5 9.5, 52.5 9.5 M52.5 9.5 C37.0 9.5, 21.6 10.1, 5.5 9.5 M5.5 9.5 C3.1 9.1, 0.5 8.4, 0.5 5 M0.5 5 C0.5 5, 0.5 5, 0.5 5 M0.5 5 C0.6 2.5, 2.7 -0.0, 5.5 0.5" stroke-width="1.5" fill="none" stroke-linecap="round" transform="translate(192.5 28) rotate(0) scale(1 1) " stroke="#333333" fill-opacity="1" stroke-opacity="1"></path>

    <path d="M59.2 -6.0 C60.3 -5.7, 61.6 -4.7, 62.3 -3.6 C63.1 -2.5, 63.7 -0.9, 63.7 0.3 C63.8 1.7, 63.4 3.2, 62.6 4.2 C61.7 5.2, 59.9 6.2, 58.7 6.2 C57.4 6.3, 55.9 5.3, 54.9 4.6 C53.8 3.9, 52.7 3.2, 52.3 2.0 C52.0 0.8, 52.2 -1.2, 52.6 -2.5 C53.0 -3.7, 53.7 -4.7, 54.9 -5.3 C56.1 -5.9, 58.9 -5.8, 59.6 -5.9 C60.4 -6.0, 59.4 -5.8, 59.4 -5.7" stroke-width="1.5" fill="none" stroke-linecap="round" transform="translate(208.5 31.5) rotate(0) scale(1 1) " stroke="#333333" fill-opacity="1" stroke-opacity="1"></path>


    <svg id="mockupView-ui-5-17" data-type="com.balsamiq.mockups::Label" overflow="visible" opacity="1" x="52" y="67" width="53" height="26"><g id="mockupView-ui-5-17-clipTransform" transform="translate(0 0)"><clipPath id="mockupView-ui-5-17-mask-0" width="1" height="1" x="0" y="0"><rect x="0" y="0" width="56" height="26" fill="#ffffff"></rect></clipPath><g id="mockupView-ui-5-17-children" transform="translate(0 0)"></g><svg id="mockupView-ui-5-17-displayList" overflow="visible" x="0" y="0"><g clip-path="url(#mockupView-ui-5-17-mask-0)"><g fill="#ff9900"><text font-family="Balsamiq Sans" font-size="18" color="#ff9900" font-style="normal" font-weight="bold" text-decoration="normal" fill-opacity="1" style="font-family:Balsamiq Sans;" x="0" y="14.173228346456693" transform="translate(0 4) rotate(0) scale(1 1) "><tspan x="0">PoliTO</tspan></text></g></g></svg><svg id="mockupView-ui-5-17-selection" overflow="visible" x="0" y="0"></svg></g></svg>
    <svg id="mockupView-ui-5-18" data-type="com.balsamiq.mockups::Label" overflow="visible" opacity="1" x="190" y="67" width="56" height="26"><g id="mockupView-ui-5-18-clipTransform" transform="translate(0 0)"><clipPath id="mockupView-ui-5-18-mask-0" width="1" height="1" x="0" y="0"><rect x="0" y="0" width="56" height="26" fill="#ffffff"></rect></clipPath><g id="mockupView-ui-5-18-children" transform="translate(0 0)"></g><svg id="mockupView-ui-5-18-displayList" overflow="visible" x="0" y="0"><g clip-path="url(#mockupView-ui-5-18-mask-0)"><g fill="#333333"><text font-family="Balsamiq Sans" font-size="18" color="#333333" font-style="normal" font-weight="bold" text-decoration="normal" fill-opacity="1" style="font-family:Balsamiq Sans;" x="0" y="14.173228346456693" transform="translate(0 4) rotate(0) scale(1 1) "><tspan x="0">Places</tspan></text></g></g></svg><svg id="mockupView-ui-5-18-selection" overflow="visible" x="0" y="0"></svg></g></svg>

    <svg id="mockupView-ui-5-4" data-type="com.balsamiq.mockups::Icon" overflow="visible" opacity="1" x="342" y="773" width="30" height="30"><g id="mockupView-ui-5-4-clipTransform" transform="translate(3 3)"><clipPath id="mockupView-ui-5-4-mask-0" width="1" height="1" x="0" y="0"><rect x="0" y="0" width="24" height="24" fill="#ffffff"></rect></clipPath><g id="mockupView-ui-5-4-children" transform="translate(0 0)"></g><svg id="mockupView-ui-5-4-displayList" overflow="visible" x="0" y="0"><g clip-path="url(#mockupView-ui-5-4-mask-0)"><path d="M304 128a80 80 0 1 0 -160 0 80 80 0 1 0 160 0zM96 128a128 128 0 1 1 256 0A128 128 0 1 1 96 128zM49.3 464H398.7c-8.9-63.3-63.3-112-129-112H178.3c-65.7 0-120.1 48.7-129 112zM0 482.3C0 383.8 79.8 304 178.3 304h91.4C368.2 304 448 383.8 448 482.3c0 16.4-13.3 29.7-29.7 29.7H29.7C13.3 512 0 498.7 0 482.3z" transform="translate(1.5 0) rotate(0) scale(0.046875 0.046875) " fill="#333333" fill-opacity="1"></path></g></svg><svg id="mockupView-ui-5-4-selection" overflow="visible" x="0" y="0"></svg></g></svg>
    <svg id="mockupView-ui-5-5" data-type="com.balsamiq.mockups::IconLabel" overflow="visible" opacity="1" x="330" y="763" width="54" height="69">
        <g id="mockupView-ui-5-5-clipTransform" transform="translate(3 3)">
        <clipPath id="mockupView-ui-5-5-mask-0" width="1" height="1" x="0" y="0">
            <rect x="0" y="0" width="48" height="63" fill="#ffffff"></rect>
        </clipPath>
        <g id="mockupView-ui-5-5-children" transform="translate(0 0)"></g>
        <svg id="mockupView-ui-5-5-displayList" overflow="visible" x="0" y="0">
            <g clip-path="url(#mockupView-ui-5-5-mask-0)">
            <g fill="#333333">
                <text font-family="Balsamiq Sans" font-size="13" color="#333333" font-style="normal" font-weight="normal" text-decoration="normal" fill-opacity="1" style="font-family:Balsamiq Sans;" x="0" y="10.236220472440944" transform="translate(6 50) rotate(0) scale(1 1) ">
                    <tspan x="0">Profile</tspan>
                </text>
            </g>
            </g>
            <path d="M43.0 47.0 C35.0 46.9, 27.8 47.5, 4.8 47.0 M4.8 47.0 C2.0 46.8, 1.6 45.4, 1 43.1 M1 43.1 C0.1 31.2, 0.7 18.0, 1 5.0 M1 5.0 C0.5 3.3, 2.2 0.6, 4.8 1.1 M4.8 1.1 C16.1 0.8, 28.4 1.7, 43.0 1.1 M43.0 1.1 C45.6 1.2, 46.1 3.3, 46.9 5.0 M46.9 5.0 C47.9 13.2, 47.5 20.9, 46.9 43.1 M46.9 43.1 C47.5 44.4, 44.6 46.1, 43.0 47.0 M43.0 47.0 C43.0 47.0, 43.0 47.0, 43.0 47.0 M43.0 47.0 C43.0 47.0, 43.0 47.0, 43.0 47.0" stroke-width="1.5" fill="none" stroke-linecap="round" transform="translate(0 0) rotate(0) scale(1 1) " stroke="#333333" fill-opacity="1" stroke-opacity="1"></path>
            </svg>
            <svg id="mockupView-ui-5-5-selection" overflow="visible" x="0" y="0"></svg></g></svg>
    <svg id="mockupView-ui-5-14" data-type="__group__" overflow="visible" opacity="1" x="191" y="763" width="54" height="69"><g id="mockupView-ui-5-14-clipTransform" transform="translate(3 3)"><g id="mockupView-ui-5-14-children" transform="translate(0 0)"><svg id="mockupView-ui-5-14-0" data-type="com.balsamiq.mockups::IconLabel" overflow="visible" opacity="1" x="-3" y="-3" width="54" height="69"><g id="mockupView-ui-5-14-0-clipTransform" transform="translate(3 3)"><clipPath id="mockupView-ui-5-14-0-mask-0" width="1" height="1" x="0" y="0"><rect x="0" y="0" width="48" height="63" fill="#ffffff"></rect></clipPath><g id="mockupView-ui-5-14-0-children" transform="translate(0 0)"></g><svg id="mockupView-ui-5-14-0-displayList" overflow="visible" x="0" y="0"><g clip-path="url(#mockupView-ui-5-14-0-mask-0)"><g fill="#cf2a27"><text font-family="Balsamiq Sans" font-size="13" color="#cf2a27" font-style="normal" font-weight="normal" text-decoration="normal" fill-opacity="1" style="font-family:Balsamiq Sans;" x="0" y="10.236220472440944" transform="translate(7 50) rotate(0) scale(1 1) "><tspan x="0">Places</tspan></text></g></g><path d="M43.0 47.0 C35.8 47.5, 27.6 47.6, 4.8 47.0 M4.8 47.0 C2.4 46.1, 0.6 45.5, 1 43.1 M1 43.1 C0.3 34.9, 1.4 27.1, 1 5.0 M1 5.0 C1.0 3.1, 2.1 1.9, 4.8 1.1 M4.8 1.1 C13.9 0.2, 22.0 1.7, 43.0 1.1 M43.0 1.1 C46.1 0.3, 47.6 2.4, 46.9 5.0 M46.9 5.0 C47.3 14.4, 47.2 24.6, 46.9 43.1 M46.9 43.1 C46.2 45.3, 45.6 47.4, 43.0 47.0 M43.0 47.0 C43.0 47.0, 43.0 47.0, 43.0 47.0 M43.0 47.0 C43.0 47.0, 43.0 47.0, 43.0 47.0" stroke-width="1.5" fill="none" stroke-linecap="round" transform="translate(0 0) rotate(0) scale(1 1) " stroke="#cf2a27" fill-opacity="1" stroke-opacity="1"></path></svg><svg id="mockupView-ui-5-14-0-selection" overflow="visible" x="0" y="0"></svg></g></svg><svg id="mockupView-ui-5-14-1" data-type="com.balsamiq.mockups::Icon" overflow="visible" opacity="1" x="9" y="7" width="30" height="30"><g id="mockupView-ui-5-14-1-clipTransform" transform="translate(3 3)"><clipPath id="mockupView-ui-5-14-1-mask-0" width="1" height="1" x="0" y="0"><rect x="0" y="0" width="24" height="24" fill="#ffffff"></rect></clipPath><g id="mockupView-ui-5-14-1-children" transform="translate(0 0)"></g><svg id="mockupView-ui-5-14-1-displayList" overflow="visible" x="0" y="0"><g clip-path="url(#mockupView-ui-5-14-1-mask-0)"><path d="M336 192c0-79.5-64.5-144-144-144S48 112.5 48 192c0 12.4 4.5 31.6 15.3 57.2c10.5 24.8 25.4 52.2 42.5 79.9c28.5 46.2 61.5 90.8 86.2 122.6c24.8-31.8 57.8-76.4 86.2-122.6c17.1-27.7 32-55.1 42.5-79.9C331.5 223.6 336 204.4 336 192zm48 0c0 87.4-117 243-168.3 307.2c-12.3 15.3-35.1 15.3-47.4 0C117 435 0 279.4 0 192C0 86 86 0 192 0S384 86 384 192zm-160 0a32 32 0 1 0 -64 0 32 32 0 1 0 64 0zm-112 0a80 80 0 1 1 160 0 80 80 0 1 1 -160 0z" transform="translate(3 0) rotate(0) scale(0.046875 0.046875) " fill="#cf2a27" fill-opacity="1"></path></g></svg><svg id="mockupView-ui-5-14-1-selection" overflow="visible" x="0" y="0"></svg></g></svg></g><svg id="mockupView-ui-5-14-displayList" overflow="visible" x="0" y="0"></svg><svg id="mockupView-ui-5-14-selection" overflow="visible" x="0" y="0"></svg></g></svg>
    <svg id="mockupView-ui-5-8" data-type="com.balsamiq.mockups::IconLabel" overflow="visible" opacity="1" x="259" y="763" width="57" height="69"><g id="mockupView-ui-5-8-clipTransform" transform="translate(3 3)"><clipPath id="mockupView-ui-5-8-mask-0" width="1" height="1" x="0" y="0"><rect x="0" y="0" width="51" height="63" fill="#ffffff"></rect></clipPath><g id="mockupView-ui-5-8-children" transform="translate(0 0)"></g><svg id="mockupView-ui-5-8-displayList" overflow="visible" x="0" y="0"><g clip-path="url(#mockupView-ui-5-8-mask-0)"><g fill="#333333"><text font-family="Balsamiq Sans" font-size="13" color="#333333" font-style="normal" font-weight="normal" text-decoration="normal" fill-opacity="1" style="font-family:Balsamiq Sans;" x="0" y="10.236220472440944" transform="translate(3 50) rotate(0) scale(1 1) "><tspan x="0">Services</tspan></text></g></g><path d="M43.0 47.0 C35.3 47.3, 28.3 46.2, 4.8 47.0 M4.8 47.0 C2.2 47.2, 1.4 45.0, 1 43.1 M1 43.1 C1.1 28.6, 0.9 12.5, 1 5.0 M1 5.0 C1.7 3.1, 3.5 1.9, 4.8 1.1 M4.8 1.1 C19.4 1.2, 33.1 0.6, 43.0 1.1 M43.0 1.1 C45.2 1.7, 47.2 2.9, 46.9 5.0 M46.9 5.0 C47.8 14.0, 47.3 21.7, 46.9 43.1 M46.9 43.1 C46.3 45.5, 44.8 46.2, 43.0 47.0 M43.0 47.0 C43.0 47.0, 43.0 47.0, 43.0 47.0 M43.0 47.0 C43.0 47.0, 43.0 47.0, 43.0 47.0" stroke-width="1.5" fill="none" stroke-linecap="round" transform="translate(1.5 0) rotate(0) scale(1 1) " stroke="#333333" fill-opacity="1" stroke-opacity="1"></path></svg><svg id="mockupView-ui-5-8-selection" overflow="visible" x="0" y="0"></svg></g></svg>
    <svg id="mockupView-ui-5-9" data-type="com.balsamiq.mockups::Icon" overflow="visible" opacity="1" x="273" y="773" width="30" height="30"><g id="mockupView-ui-5-9-clipTransform" transform="translate(3 3)"><clipPath id="mockupView-ui-5-9-mask-0" width="1" height="1" x="0" y="0"><rect x="0" y="0" width="24" height="24" fill="#ffffff"></rect></clipPath><g id="mockupView-ui-5-9-children" transform="translate(0 0)"></g><svg id="mockupView-ui-5-9-displayList" overflow="visible" x="0" y="0"><g clip-path="url(#mockupView-ui-5-9-mask-0)"><path d="M256 48a208 208 0 1 1 0 416 208 208 0 1 1 0-416zm0 464A256 256 0 1 0 256 0a256 256 0 1 0 0 512zM216 336c-13.3 0-24 10.7-24 24s10.7 24 24 24h80c13.3 0 24-10.7 24-24s-10.7-24-24-24h-8V248c0-13.3-10.7-24-24-24H216c-13.3 0-24 10.7-24 24s10.7 24 24 24h24v64H216zm40-144a32 32 0 1 0 0-64 32 32 0 1 0 0 64z" transform="translate(0 0) rotate(0) scale(0.046875 0.046875) " fill="#333333" fill-opacity="1"></path></g></svg><svg id="mockupView-ui-5-9-selection" overflow="visible" x="0" y="0"></svg></g></svg>
    <svg id="mockupView-ui-5-10" data-type="com.balsamiq.mockups::IconLabel" overflow="visible" opacity="1" x="118" y="763" width="54" height="69"><g id="mockupView-ui-5-10-clipTransform" transform="translate(3 3)"><clipPath id="mockupView-ui-5-10-mask-0" width="1" height="1" x="0" y="0"><rect x="0" y="0" width="48" height="63" fill="#ffffff"></rect></clipPath><g id="mockupView-ui-5-10-children" transform="translate(0 0)"></g><svg id="mockupView-ui-5-10-displayList" overflow="visible" x="0" y="0"><g clip-path="url(#mockupView-ui-5-10-mask-0)"><g fill="#333333"><text font-family="Balsamiq Sans" font-size="13" color="#333333" font-style="normal" font-weight="normal" text-decoration="normal" fill-opacity="1" style="font-family:Balsamiq Sans;" x="0" y="10.236220472440944" transform="translate(3.5 50) rotate(0) scale(1 1) "><tspan x="0">Agenda</tspan></text></g></g><path d="M43.0 47.0 C36.1 46.3, 28.0 47.4, 4.8 47.0 M4.8 47.0 C3.6 47.5, 0.6 45.4, 1 43.1 M1 43.1 C1.9 35.1, 1.9 26.2, 1 5.0 M1 5.0 C1.9 3.5, 2.3 1.4, 4.8 1.1 M4.8 1.1 C20.3 1.4, 34.9 1.8, 43.0 1.1 M43.0 1.1 C45.0 2.1, 46.6 2.1, 46.9 5.0 M46.9 5.0 C46.1 17.6, 47.5 32.4, 46.9 43.1 M46.9 43.1 C46.8 45.6, 45.7 46.9, 43.0 47.0 M43.0 47.0 C43.0 47.0, 43.0 47.0, 43.0 47.0 M43.0 47.0 C43.0 47.0, 43.0 47.0, 43.0 47.0" stroke-width="1.5" fill="none" stroke-linecap="round" transform="translate(0 0) rotate(0) scale(1 1) " stroke="#333333" fill-opacity="1" stroke-opacity="1"></path></svg><svg id="mockupView-ui-5-10-selection" overflow="visible" x="0" y="0"></svg></g></svg>
    <svg id="mockupView-ui-5-11" data-type="com.balsamiq.mockups::Icon" overflow="visible" opacity="1" x="130" y="773" width="30" height="30"><g id="mockupView-ui-5-11-clipTransform" transform="translate(3 3)"><clipPath id="mockupView-ui-5-11-mask-0" width="1" height="1" x="0" y="0"><rect x="0" y="0" width="24" height="24" fill="#ffffff"></rect></clipPath><g id="mockupView-ui-5-11-children" transform="translate(0 0)"></g><svg id="mockupView-ui-5-11-displayList" overflow="visible" x="0" y="0"><g clip-path="url(#mockupView-ui-5-11-mask-0)"><path d="M152 24c0-13.3-10.7-24-24-24s-24 10.7-24 24V64H64C28.7 64 0 92.7 0 128v16 48V448c0 35.3 28.7 64 64 64H384c35.3 0 64-28.7 64-64V192 144 128c0-35.3-28.7-64-64-64H344V24c0-13.3-10.7-24-24-24s-24 10.7-24 24V64H152V24zM48 192H400V448c0 8.8-7.2 16-16 16H64c-8.8 0-16-7.2-16-16V192z" transform="translate(1.5 0) rotate(0) scale(0.046875 0.046875) " fill="#333333" fill-opacity="1"></path></g></svg><svg id="mockupView-ui-5-11-selection" overflow="visible" x="0" y="0"></svg></g></svg>
    <svg id="mockupView-ui-5-12" data-type="com.balsamiq.mockups::IconLabel" overflow="visible" opacity="1" x="39" y="763" width="60" height="69"><g id="mockupView-ui-5-12-clipTransform" transform="translate(3 3)"><clipPath id="mockupView-ui-5-12-mask-0" width="1" height="1" x="0" y="0"><rect x="0" y="0" width="54" height="63" fill="#ffffff"></rect></clipPath><g id="mockupView-ui-5-12-children" transform="translate(0 0)"></g><svg id="mockupView-ui-5-12-displayList" overflow="visible" x="0" y="0"><g clip-path="url(#mockupView-ui-5-12-mask-0)"><g fill="#333333"><text font-family="Balsamiq Sans" font-size="13" color="#333333" font-style="normal" font-weight="normal" text-decoration="normal" fill-opacity="1" style="font-family:Balsamiq Sans;" x="0" y="10.236220472440944" transform="translate(3 50) rotate(0) scale(1 1) "><tspan x="0">Teaching</tspan></text></g></g><path d="M43.0 47.0 C35.0 47.4, 27.7 46.7, 4.8 47.0 M4.8 47.0 C3.0 47.8, 1.8 45.8, 1 43.1 M1 43.1 C0.7 32.0, 0.8 22.5, 1 5.0 M1 5.0 C0.1 2.0, 3.1 0.9, 4.8 1.1 M4.8 1.1 C13.5 1.6, 21.4 0.9, 43.0 1.1 M43.0 1.1 C44.8 0.5, 46.0 3.2, 46.9 5.0 M46.9 5.0 C46.8 15.6, 46.1 27.9, 46.9 43.1 M46.9 43.1 C47.4 45.6, 44.5 47.6, 43.0 47.0 M43.0 47.0 C43.0 47.0, 43.0 47.0, 43.0 47.0 M43.0 47.0 C43.0 47.0, 43.0 47.0, 43.0 47.0" stroke-width="1.5" fill="none" stroke-linecap="round" transform="translate(3 0) rotate(0) scale(1 1) " stroke="#333333" fill-opacity="1" stroke-opacity="1"></path></svg><svg id="mockupView-ui-5-12-selection" overflow="visible" x="0" y="0"></svg></g></svg>
    <svg id="mockupView-ui-5-13" data-type="com.balsamiq.mockups::Icon" overflow="visible" opacity="1" x="52" y="773" width="30" height="30"><g id="mockupView-ui-5-13-clipTransform" transform="translate(3 3)"><clipPath id="mockupView-ui-5-13-mask-0" width="1" height="1" x="0" y="0"><rect x="0" y="0" width="24" height="24" fill="#ffffff"></rect></clipPath><g id="mockupView-ui-5-13-children" transform="translate(0 0)"></g><svg id="mockupView-ui-5-13-displayList" overflow="visible" x="0" y="0"><g clip-path="url(#mockupView-ui-5-13-mask-0)"><path d="M249.6 471.5c10.8 3.8 22.4-4.1 22.4-15.5V78.6c0-4.2-1.6-8.4-5-11C247.4 52 202.4 32 144 32C93.5 32 46.3 45.3 18.1 56.1C6.8 60.5 0 71.7 0 83.8V454.1c0 11.9 12.8 20.2 24.1 16.5C55.6 460.1 105.5 448 144 448c33.9 0 79 14 105.6 23.5zm76.8 0C353 462 398.1 448 432 448c38.5 0 88.4 12.1 119.9 22.6c11.3 3.8 24.1-4.6 24.1-16.5V83.8c0-12.1-6.8-23.3-18.1-27.6C529.7 45.3 482.5 32 432 32c-58.4 0-103.4 20-123 35.6c-3.3 2.6-5 6.8-5 11V456c0 11.4 11.7 19.3 22.4 15.5z" transform="translate(0 1.333333333333334) rotate(0) scale(0.041666666666666664 0.041666666666666664) " fill="#333333" fill-opacity="1"></path></g></svg><svg id="mockupView-ui-5-13-selection" overflow="visible" x="0" y="0"></svg></g></svg>
    <svg id="mockupView-ui-5-15" data-type="com.balsamiq.mockups::HRule" overflow="hidden" opacity="1" x="26" y="747" width="383" height="16"><g id="mockupView-ui-5-15-clipTransform" transform="translate(3 3)"><g id="mockupView-ui-5-15-children" transform="translate(0 0)"></g><svg id="mockupView-ui-5-15-displayList" overflow="visible" x="0" y="0"><path d="M-0.8 5 C31.0 5.5, 63.6 5.1, 159.1 5 M159.1 5 C215.5 4.8, 271.0 4.3, 319.1 5 M319.1 5 C340.6 5.3, 362.9 4.7, 378.4 5" stroke-width="1.5" fill="none" stroke-linecap="round" transform="translate(0 -0.5) rotate(0) scale(1 1) " stroke="#333333" fill-opacity="1" stroke-opacity="1"></path></svg><svg id="mockupView-ui-5-15-selection" overflow="visible" x="0" y="0"></svg></g></svg>
    <svg id="mockupView-ui-5-19" data-type="com.balsamiq.mockups::ComboBox" overflow="hidden" opacity="1" x="300" y="63" width="83" height="33"><g id="mockupView-ui-5-19-clipTransform" transform="translate(3 3)"><clipPath id="mockupView-ui-5-19-mask-0" width="1" height="1" x="0" y="0"><rect x="0" y="0" width="77" height="27" fill="#ffffff"></rect></clipPath><g id="mockupView-ui-5-19-children" transform="translate(0 0)"></g><svg id="mockupView-ui-5-19-displayList" overflow="visible" x="0" y="0"><path d="M5.5 0.5 C5.5 0.5, 5.5 0.5, 5.5 0.5 C21.8 0.5, 38.1 0.5, 69.5 0.5 C72.2 0.5, 74.5 2.7, 74.5 5.5 C74.5 5.5, 74.5 5.5, 74.5 5.5 C74.5 8.8, 74.5 12.1, 74.5 19.5 C74.5 22.2, 72.2 24.5, 69.5 24.5 C69.5 24.5, 69.5 24.5, 69.5 24.5 C46.1 24.5, 22.7 24.5, 5.5 24.5 C2.7 24.5, 0.5 22.2, 0.5 19.5 C0.5 19.5, 0.5 19.5, 0.5 19.5 C0.5 15.2, 0.5 10.9, 0.5 5.5 C0.4 2.7, 2.7 0.5, 5.5 0.5" stroke-width="0" fill="#c1c1c1" stroke-linecap="round" transform="translate(2.5 2.5) rotate(0) scale(1 1) " fill-opacity="1" stroke-opacity="1"></path><path d="M5.5 0.5 C5.5 0.5, 5.5 0.5, 5.5 0.5 C21.8 0.5, 38.1 0.5, 69.5 0.5 C72.2 0.5, 74.5 2.7, 74.5 5.5 C74.5 5.5, 74.5 5.5, 74.5 5.5 C74.5 8.8, 74.5 12.1, 74.5 19.5 C74.5 22.2, 72.2 24.5, 69.5 24.5 C69.5 24.5, 69.5 24.5, 69.5 24.5 C46.1 24.5, 22.7 24.5, 5.5 24.5 C2.7 24.5, 0.5 22.2, 0.5 19.5 C0.5 19.5, 0.5 19.5, 0.5 19.5 C0.5 15.2, 0.5 10.9, 0.5 5.5 C0.4 2.7, 2.7 0.5, 5.5 0.5" stroke-width="1.5" fill="#ffffff" stroke-linecap="round" transform="translate(0 0) rotate(0) scale(1 1) " fill-opacity="1" stroke-opacity="1"></path><g clip-path="url(#mockupView-ui-5-19-mask-0)"><g fill="#333333"><text font-family="Balsamiq Sans" font-size="13" color="#333333" font-style="normal" font-weight="normal" text-decoration="normal" fill-opacity="1" style="font-family:Balsamiq Sans;" x="0" y="10.236220472440944" transform="translate(4 6) rotate(0) scale(1 1) "><tspan x="0">Campus</tspan></text></g></g><path d="M0.5 0.5 C0.5 0.5, 0.5 0.5, 0.5 0.5 C15.6 -0.6, 28.3 0.0, 37.5 0.5 C37.5 0.5, 37.5 0.5, 37.5 0.5 C35.4 15.3, 35.7 25.0, 37.5 45.5 C37.5 45.5, 37.5 45.5, 37.5 45.5 C30.3 46.0, 21.6 43.5, 0.5 45.5 C0.5 45.5, 0.5 45.5, 0.5 45.5 C-1.4 27.7, 0.4 11.1, 0.5 0.5" stroke-width="3" fill="#ffffff" stroke-linecap="round" transform="translate(54 1) rotate(0) scale(0.5 0.5) " fill-opacity="1" stroke-opacity="1"></path><path d="M69.5 24.5 C69.5 24.5, 69.5 24.5, 69.5 24.5 M69.5 24.5 C55.0 23.4, 39.2 23.8, 5.5 24.5C2.7 24.5, 0.5 22.2, 0.5 19.5C0.5 19.5, 0.5 19.5, 0.5 19.5 C1.1 15.6, 0.8 12.5, 0.5 5.5C0.4 2.7, 2.7 0.5, 5.5 0.5C5.5 0.5, 5.5 0.5, 5.5 0.5 C21.7 0.0, 36.6 0.4, 69.5 0.5C72.2 0.5, 74.5 2.7, 74.5 5.5C74.5 5.5, 74.5 5.5, 74.5 5.5 C75.1 8.3, 74.7 11.9, 74.5 19.5C74.5 22.2, 72.2 24.5, 69.5 24.5" stroke-width="1.5" fill="none" stroke-linecap="round" transform="translate(0 0) rotate(0) scale(1 1) " stroke="#333333" fill-opacity="1" stroke-opacity="1"></path><path d="M55 0.9 C54.6 6.1, 54.8 10.5, 55 23.4" stroke-width="1.5" fill="none" stroke-linecap="round" transform="translate(0 0) rotate(0) scale(1 1) " stroke="#333333" fill-opacity="1" stroke-opacity="1"></path><path d="M5.9 5.6 C9.3 12.5, 13.3 18.6, 24.8 36.3" stroke-width="7.199999999999999" fill="none" stroke-linecap="round" transform="translate(60 9.5) rotate(0) scale(0.20833333333333334 0.14583333333333334) " stroke="#333333" fill-opacity="1" stroke-opacity="1"></path><path d="M23.4 35.8 C26.7 30.4, 30.7 24.2, 42.3 5.1" stroke-width="7.199999999999999" fill="none" stroke-linecap="round" transform="translate(60 9.5) rotate(0) scale(0.20833333333333334 0.14583333333333334) " stroke="#333333" fill-opacity="1" stroke-opacity="1"></path></svg><svg id="mockupView-ui-5-19-selection" overflow="visible" x="0" y="0"></svg></g></svg>
</svg>


